# File created by Blade
# Date/Time:  Tue Jan 27 19:00:46 2015
#---------------------------------------------------------
:version 1.10
:name HOM
:units
  mass 1.0
  length 1.000000
  angle deg
:documentation
     Acclaim Skeleton File
:root
   axis xyz
   order TX TY TZ RX RY RZ
   position 0.000000 0.000000 0.000000
   orientation 0 0 0
:bonedata
   begin
      id 1
      name Spine_dum
      direction 0.000000 1.000000 0.000000
      length 5.195262
      axis 0.0 0.0 0.0 xyz
   end
   begin
      id 2
      name LeftUpLeg_dum
      direction 1.000000 0.000000 0.000000
      length 3.351363
      axis 0.0 0.0 0.0 xyz
   end
   begin
      id 3
      name RightUpLeg_dum
      direction -1.000000 0.000000 0.000000
      length 3.351363
      axis 0.0 0.0 0.0 xyz
   end
   begin
      id 4
      name Spine
      direction 0.000000 1.000000 0.000000
      length 0.000000
      axis 0.0 0.0 0.0 xyz
      dof rx ry rz
   end
   begin
      id 5
      name Spine_dum1
      direction 0.000000 1.000000 0.000000
      length 15.653875
      axis 0.0 0.0 0.0 xyz
   end
   begin
      id 6
      name Spine_dum2
      direction 0.000000 1.000000 0.000000
      length 10.329768
      axis 0.0 0.0 0.0 xyz
   end
   begin
      id 7
      name Spine_dum3
      direction 0.000000 1.000000 0.000000
      length 10.329768
      axis 0.0 0.0 0.0 xyz
   end
   begin
      id 8
      name Head
      direction 0.000000 1.000000 0.000000
      length 4.527550
      axis 0.0 0.0 0.0 xyz
      dof rx ry rz
   end
   begin
      id 9
      name LeftShoulder
      direction 1.000000 0.000000 0.000000
      length 6.996006
      axis 0.0 0.0 -90.0 xyz
      dof rx ry rz
   end
   begin
      id 10
      name LeftArm
      direction 1.000000 0.000000 0.000000
      length 10.209302
      axis 0.0 0.0 -90.0 xyz
      dof rx ry rz
   end
   begin
      id 11
      name LeftForeArm
      direction 1.000000 0.000000 0.000000
      length 8.563163
      axis 0.0 0.0 -90.0 xyz
      dof ry rz rx
   end
   begin
      id 12
      name LeftHand
      direction 0.000000 0.000000 0.000000
      length 0.000000
      axis 0.0 0.0 -90.0 xyz
      dof rx ry rz
   end
   begin
      id 13
      name LeftHand_dum1
      direction 0.000000 0.000000 0.000000
      length 0.000000
      axis 0.0 0.0 -90.0 xyz
   end
   begin
      id 14
      name LeftHand_dum2
      direction 1.000000 0.000000 0.000000
      length 3.937000
      axis 0.0 0.0 -90.0 xyz
   end
   begin
      id 15
      name LeftHandThumb1
      direction 0.000000 0.000000 1.000000
      length 3.937000
      axis 0.0 0.0 -90.0 xyz
      dof rx rz ry
   end
   begin
      id 16
      name RightShoulder
      direction -1.000000 0.000000 0.000000
      length 6.996006
      axis 0.0 0.0 90.0 xyz
      dof rx ry rz
   end
   begin
      id 17
      name RightArm
      direction -1.000000 0.000000 0.000000
      length 10.209302
      axis 0.0 0.0 90.0 xyz
      dof rx ry rz
   end
   begin
      id 18
      name RightForeArm
      direction -1.000000 0.000000 0.000000
      length 8.563163
      axis 0.0 0.0 90.0 xyz
      dof ry rz rx
   end
   begin
      id 19
      name RightHand
      direction 0.000000 0.000000 0.000000
      length 0.000000
      axis 0.0 0.0 90.0 xyz
      dof rx ry rz
   end
   begin
      id 20
      name RightHand_dum1
      direction 0.000000 0.000000 0.000000
      length 0.000000
      axis 0.0 0.0 90.0 xyz
   end
   begin
      id 21
      name RightHand_dum2
      direction -1.000000 0.000000 0.000000
      length 3.937000
      axis 0.0 0.0 90.0 xyz
   end
   begin
      id 22
      name RightHandThumb1
      direction 0.000000 0.000000 1.000000
      length 3.937000
      axis 0.0 0.0 90.0 xyz
      dof rx rz ry
   end
   begin
      id 23
      name LeftUpLeg
      direction 0.000000 -1.000000 0.000000
      length 16.346831
      axis 0.0 0.0 0.0 xyz
      dof rx ry rz
   end
   begin
      id 24
      name LeftLeg
      direction 0.000000 -1.000000 0.000000
      length 13.959795
      axis 0.0 0.0 0.0 xyz
      dof rx ry rz
   end
   begin
      id 25
      name LeftFoot
      direction 0.000000 -0.258819 0.965926
      length 5.165550
      axis 15.0 0.0 0.0 xyz
      dof rx ry rz
   end
   begin
      id 26
      name LeftToeBase
      direction 0.000000 0.000000 1.000000
      length 2.952750
      axis 0.0 0.0 0.0 xyz
      dof rx ry rz
   end
   begin
      id 27
      name RightUpLeg
      direction 0.000000 -1.000000 0.000000
      length 16.346831
      axis 0.0 0.0 0.0 xyz
      dof rx ry rz
   end
   begin
      id 28
      name RightLeg
      direction 0.000000 -1.000000 0.000000
      length 13.959795
      axis 0.0 0.0 0.0 xyz
      dof rx ry rz
   end
   begin
      id 29
      name RightFoot
      direction 0.000000 -0.258819 0.965926
      length 5.165550
      axis 15.0 0.0 0.0 xyz
      dof rx ry rz
   end
   begin
      id 30
      name RightToeBase
      direction 0.000000 0.000000 1.000000
      length 2.952750
      axis 0.0 0.0 0.0 xyz
      dof rx ry rz
   end
:hierarchy
   begin
      root Spine_dum LeftUpLeg_dum RightUpLeg_dum
      Spine_dum Spine
      LeftUpLeg_dum LeftUpLeg
      RightUpLeg_dum RightUpLeg
      Spine Spine_dum1 Spine_dum2 Spine_dum3
      Spine_dum1 Head
      Spine_dum2 LeftShoulder
      Spine_dum3 RightShoulder
      LeftShoulder LeftArm
      LeftArm LeftForeArm
      LeftForeArm LeftHand
      LeftHand LeftHand_dum1 LeftHand_dum2
      LeftHand_dum1 LeftHandThumb1
      RightShoulder RightArm
      RightArm RightForeArm
      RightForeArm RightHand
      RightHand RightHand_dum1 RightHand_dum2
      RightHand_dum1 RightHandThumb1
      LeftUpLeg LeftLeg
      LeftLeg LeftFoot
      LeftFoot LeftToeBase
      RightUpLeg RightLeg
      RightLeg RightFoot
      RightFoot RightToeBase
   end

# File created by Blade
# Date/Time:  Tue Jan 27 19:00:36 2015
# Frame Rate: 120.000 fps
#------------------------------------------------------
:FULLY-SPECIFIED
:DEGREES
1
root -6.029943 31.747884 -5.207501 4.432209 5.219506 2.671040
Spine -3.658872 -6.117198 -3.681789
Head 5.658451 19.838390 2.708430
LeftShoulder -17.979618 14.343076 20.594331
LeftArm 20.059509 -38.041528 -40.449257
LeftForeArm -30.625140 -0.000000 14.930100
LeftHand -9.668633 -0.000000 15.772292
LeftHandThumb1 -26.253704 0.000000 33.147579
RightShoulder -13.446904 2.715046 -32.181267
RightArm 15.503087 9.248979 37.115582
RightForeArm -23.620090 -0.000000 6.108678
RightHand -14.718402 0.000000 16.494220
RightHandThumb1 -24.326973 -0.000000 -32.862282
LeftUpLeg -0.231898 -3.009889 -2.806279
LeftLeg 1.874207 -0.000000 -0.000000
LeftFoot -19.482046 20.387618 -19.265462
LeftToeBase 9.793407 -0.000000 -0.000000
RightUpLeg 1.954210 -5.840391 -1.316349
RightLeg -2.822849 -0.000000 0.000000
RightFoot -16.046195 -15.736658 8.177253
RightToeBase 6.280029 -0.000000 -0.000000
2
root -6.032891 31.748298 -5.211211 4.425285 5.205627 2.669794
Spine -3.675442 -6.097009 -3.692653
Head 5.683047 18.810235 2.619660
LeftShoulder -17.971092 14.404683 20.608174
LeftArm 20.009921 -37.975690 -40.380223
LeftForeArm -30.697472 -0.000000 14.909774
LeftHand -9.671173 -0.000000 15.751409
LeftHandThumb1 -26.253704 0.000000 33.147579
RightShoulder -13.417400 2.709461 -32.172253
RightArm 15.477294 9.234283 37.122452
RightForeArm -23.606136 -0.000000 6.124634
RightHand -14.663180 0.000000 16.540939
RightHandThumb1 -24.326973 -0.000000 -32.862282
LeftUpLeg -0.238143 -3.005547 -2.801680
LeftLeg 1.891795 -0.000000 -0.000000
LeftFoot -19.493090 20.390423 -19.286631
LeftToeBase 9.790913 -0.000000 -0.000000
RightUpLeg 1.951180 -5.846397 -1.311822
RightLeg -2.821140 -0.000000 0.000000
RightFoot -16.043767 -15.719637 8.170319
RightToeBase 6.323699 -0.000000 -0.000000
3
root -6.037384 31.748882 -5.214905 4.417215 5.188438 2.659431
Spine -3.689105 -6.084831 -3.690284
Head 5.724644 17.818408 2.523484
LeftShoulder -17.970384 14.472119 20.607151
LeftArm 20.015922 -38.101610 -40.425594
LeftForeArm -30.620928 -0.000000 14.913822
LeftHand -9.729987 -0.000000 15.789444
LeftHandThumb1 -26.253704 0.000000 33.147579
RightShoulder -13.388154 2.654526 -32.147607
RightArm 15.502855 9.288888 37.141381
RightForeArm -23.615913 -0.000000 6.129453
RightHand -14.684477 -0.000000 16.586955
RightHandThumb1 -24.326973 -0.000000 -32.862282
LeftUpLeg -0.242645 -3.027563 -2.779752
LeftLeg 1.898147 -0.000000 -0.000000
LeftFoot -19.473506 20.418592 -19.229583
LeftToeBase 9.759052 -0.000000 -0.000000
RightUpLeg 1.952053 -5.819491 -1.294020
RightLeg -2.827539 -0.000000 0.000000
RightFoot -16.029634 -15.728265 8.172345
RightToeBase 6.318625 -0.000000 -0.000000
4
root -6.039772 31.749303 -5.218375 4.407183 5.166917 2.661461
Spine -3.699343 -6.076323 -3.690026
Head 5.761646 16.845478 2.424991
LeftShoulder -17.979512 14.545515 20.593181
LeftArm 19.962312 -38.082198 -40.378555
LeftForeArm -30.677550 -0.000000 14.925869
LeftHand -9.714320 0.000000 15.738354
LeftHandThumb1 -26.253704 0.000000 33.147579
RightShoulder -13.355934 2.669668 -32.141747
RightArm 15.485576 9.234846 37.127461
RightForeArm -23.639360 0.000000 6.130746
RightHand -14.764104 -0.000000 16.517132
RightHandThumb1 -24.326973 -0.000000 -32.862282
LeftUpLeg -0.244904 -3.020274 -2.780253
LeftLeg 1.912675 -0.000000 -0.000000
LeftFoot -19.468496 20.431794 -19.221071
LeftToeBase 9.745678 -0.000000 -0.000000
RightUpLeg 1.951643 -5.819536 -1.294033
RightLeg -2.827224 -0.000000 0.000000
RightFoot -16.011521 -15.712781 8.157626
RightToeBase 6.261801 -0.000000 -0.000000
5
root -6.041794 31.749868 -5.223038 4.390447 5.143641 2.653497
Spine -3.701243 -6.068235 -3.680715
Head 5.817814 15.970599 2.311033
LeftShoulder -17.967688 14.601621 20.587578
LeftArm 19.852642 -38.044296 -40.298108
LeftForeArm -30.760985 0.000000 14.947424
LeftHand -9.632754 -0.000000 15.650738
LeftHandThumb1 -26.253704 0.000000 33.147579
RightShoulder -13.311136 2.643172 -32.139524
RightArm 15.478063 9.245369 37.152923
RightForeArm -23.681782 -0.000000 6.168094
RightHand -14.822480 -0.000000 16.486485
RightHandThumb1 -24.326973 -0.000000 -32.862282
LeftUpLeg -0.250605 -2.994778 -2.779893
LeftLeg 1.948068 -0.000000 -0.000000
LeftFoot -19.520801 20.443043 -19.303506
LeftToeBase 9.779991 -0.000000 -0.000000
RightUpLeg 1.954637 -5.799319 -1.286378
RightLeg -2.825566 -0.000000 0.000000
RightFoot -15.990217 -15.712301 8.145594
RightToeBase 6.263850 -0.000000 -0.000000
6
root -6.046266 31.749954 -5.226326 4.381915 5.125482 2.652581
Spine -3.717702 -6.058292 -3.688912
Head 5.870932 15.077040 2.208805
LeftShoulder -17.959155 14.628868 20.597531
LeftArm 19.805820 -38.093947 -40.294713
LeftForeArm -30.723959 0.000000 14.965777
LeftHand -9.722171 0.000000 15.759249
LeftHandThumb1 -26.253704 0.000000 33.147579
RightShoulder -13.280276 2.625423 -32.125319
RightArm 15.480140 9.234218 37.165513
RightForeArm -23.714667 0.000000 6.169167
RightHand -14.822571 -0.000000 16.453225
RightHandThumb1 -24.326973 -0.000000 -32.862282
LeftUpLeg -0.258485 -2.995150 -2.767635
LeftLeg 1.971144 -0.000000 -0.000000
LeftFoot -19.513470 20.434646 -19.245074
LeftToeBase 9.853059 -0.000000 -0.000000
RightUpLeg 1.954200 -5.784817 -1.277712
RightLeg -2.827956 -0.000000 0.000000
RightFoot -15.980300 -15.721029 8.123758
RightToeBase 6.237026 -0.000000 -0.000000
